<?xml version="1.0" encoding="UTF-8"?>
<svg id="layer" width="499.5" height="500" version="1.1" viewBox="-153 -46 499.5 500" xml:space="preserve" xmlns="http://www.w3.org/2000/svg">
<g transform="translate(-71.699 -72.1)">
	<path class="st0" d="m417.3 249.6c0.1 1 0.2 2.1 0.3 3.1-0.1-1-0.2-2.1-0.3-3.1"/>
	<path class="st0" d="m416.7 244.2c0.1 0.5 0.1 1 0.2 1.4-0.1-0.5-0.1-0.9-0.2-1.4"/>
	<path class="st0" d="m417.9 255.1c0.1 1.5 0.2 2.9 0.3 4.4-0.1-1.4-0.2-2.9-0.3-4.4"/>
	<path class="st0" d="m418.6 283.6c0.1-2.5 0.1-5 0.1-7.5 0 2.5 0 5-0.1 7.5"/><g fill="#8894aa">
	<path class="st1" d="m268.1 286.5c0 8.4 5.5 14.8 12.7 14.8s12.7-6.3 12.7-14.8c0-8.6-5.4-15.2-12.7-15.2s-12.7 6.6-12.7 15.2"/>
	<path class="st1" d="m168.7 26.1c-138.1 0-250 111.9-250 250s111.9 250 250 250c125.69 0 229.68-92.683 247.29-213.46-1.581 0.5681-3.2742 1.0226-5.0606 1.3398-0.17875 0.0313-0.35847 0.0576-0.53906 0.0859-1.7546 0.28189-3.5901 0.43945-5.4941 0.43945-0.0267 0-0.0534-2e-3 -0.0801-2e-3 -7e-3 0-0.0127 2e-3 -0.0195 2e-3 -0.0112 0-0.022-2e-3 -0.0332-2e-3 -2.1432-6e-3 -4.2797-0.16855-6.375-0.48243-0.14461-0.0214-0.28552-0.0474-0.42969-0.0703-1.9968-0.31973-3.9537-0.77542-5.8398-1.3652-0.15513-0.0486-0.30679-0.098-0.46094-0.14844-1.9122-0.62379-3.7507-1.3816-5.4785-2.2754-0.0632-0.0328-0.12461-0.0664-0.1875-0.0996-1.7967-0.94378-3.4753-2.0294-4.9961-3.2559l5.0996-10.701c1.316 1.0158 2.7382 1.903 4.1973 2.709 0.25648 0.14085 0.51411 0.27791 0.77343 0.41211 1.3045 0.67793 2.6426 1.2664 3.9922 1.7676 0.31503 0.11734 0.62977 0.23044 0.94531 0.33789 1.3893 0.47047 2.779 0.85451 4.1465 1.125 0.19166 0.0385 0.38363 0.0788 0.57422 0.11328 1.5255 0.27076 3.0218 0.42933 4.4336 0.43164 0.02 1.3e-4 0.0406 2e-3 0.0606 2e-3 3.9873-5e-3 6.9766-1.3052 6.9766-4.2988 0-3.2761-3.973-4.6802-8.9492-6.1543h-2e-3c-5.0424-1.4727-11.094-3.0309-15.115-6.6777-0.0705-0.0631-0.1319-0.13487-0.20117-0.19922-0.53277-0.50185-1.033-1.0349-1.4824-1.6191-0.13582-0.17326-0.26302-0.35407-0.39063-0.53516-0.34073-0.49347-0.64728-1.0173-0.92187-1.5723-0.2053-0.40396-0.38047-0.83435-0.54688-1.2734-0.13169-0.35942-0.25159-0.72921-0.35546-1.1133-0.37146-1.3143-0.63477-2.7218-0.63477-4.3555 0-0.67712 0.14208-1.2687 0.20898-1.9062 3e-3 -0.0306 6e-3 -0.0613 0.01-0.0918 1.1056-10.035 10.229-15.201 21.482-15.201 0.48619 0 0.97852 0.10694 1.4668 0.12695 1.4512 0.0479 2.8984 0.17457 4.332 0.375 0.40934 0.0619 0.81223 0.1139 1.2207 0.1875 1.7001 0.29097 3.3732 0.69309 5.0059 1.2012 0.28765 0.0838 0.58714 0.1205 0.87305 0.20899v-0.69922c-0.1-1.5-0.19883-2.9004-0.29883-4.4004-0.1-0.8-0.10117-1.6004-0.20117-2.4004-0.1-1.1-0.19883-2.0996-0.29883-3.0996-0.1-1.3-0.3-2.7-0.5-4-0.1-0.5-0.10117-1.0004-0.20117-1.4004-15.7-122.9-120.7-218-248-218zm0.70117 212.9c16 0 28.3 8.9997 32.9 24.1l0.19922 0.5h-0.0391l0.0391 0.0996h-15.5l-0.09961-0.19921c-3.4-6.9999-10-11.1-17.5-11.1-11.394 0-20.588 10.99-20.598 24.381 5e-5 0.017-7e-5 0.0338 0 0.0508 2e-3 1.6536 0.14664 3.2674 0.41407 4.8301v2e-3c0.01 0.056 0.0233 0.11018 0.0332 0.16602 0.27437 1.5464 0.66533 3.0436 1.1738 4.4688 0.0108 0.0306 0.0242 0.0593 0.0351 0.0898 3.1588 8.7529 10.488 14.912 18.941 14.912 7.2999 0 14-4.3009 17.5-11.301l0.09966-0.19925h15.5l-0.19922 0.5c-3.4954 11.081-11.363 19.06-21.582 22.383-0.24446 0.081-0.49107 0.1548-0.73828 0.23047-1.3297 0.39895-2.6978 0.71905-4.0996 0.95899-0.64104 0.11425-1.2899 0.20074-1.9453 0.28125-0.99436 0.11449-2.0036 0.19293-3.0274 0.22656-0.54258 0.0227-1.0568 0.11914-1.6074 0.11914-5.3025 0-10.252-1.3158-14.721-3.5273-1.3897-0.68233-2.7257-1.4601-4.0059-2.3242-0.54974-0.37369-1.0855-0.75271-1.6133-1.1582-1.3665-1.0425-2.6569-2.1884-3.8633-3.4297-0.33495-0.34662-0.6627-0.69175-0.98438-1.0527-1.2816-1.4301-2.456-2.9716-3.5117-4.6133-0.17128-0.26747-0.33896-0.53208-0.5039-0.80469-1.0901-1.7939-2.0418-3.6982-2.8379-5.6992-0.0779-0.1963-0.15558-0.38969-0.23047-0.58789-0.80011-2.1097-1.4293-4.323-1.8711-6.6191-0.045-0.23512-0.086-0.4702-0.12695-0.70703-0.16445-0.94331-0.29632-1.8998-0.39648-2.8691-0.0224-0.21972-0.0494-0.43726-0.0684-0.6582-0.10195-1.1654-0.15652-2.349-0.16211-3.5469-8e-5 -0.0343-4e-3 -0.0672-4e-3 -0.10156 0-0.0112 2e-3 -0.022 2e-3 -0.0332-3e-5 -0.0229-2e-3 -0.0454-2e-3 -0.0684 0-21.1 15.4-37.699 35-37.699zm70.1 19c1.5 0 3 0.10078 4.5 0.30078l0.30078 0.0996v13.6l-0.5-0.0996c-1.1-0.2-2.1016-0.30078-3.1016-0.30078-6.5999 0-10.799 4.1001-10.799 10.5v31.1h-14.4v-31.1c0-14.6 9.4001-24.1 24-24.1zm41.199 0.0996c7e-3 0 0.0141 2e-3 0.0215 2e-3 0.0268-7e-5 0.0532-2e-3 0.0801-2e-3 15.3 0 27.199 12.401 27.199 28.301 0 15.7-11.999 28.1-27.199 28.1-0.0275 0-0.0545-2e-3 -0.082-2e-3 -7e-3 0-0.0128 2e-3 -0.0195 2e-3 -0.0114 0-0.0218-4e-3 -0.0332-4e-3 -1.8235-9e-3 -3.6-0.19134-5.3125-0.53906-0.14226-0.0285-0.28049-0.063-0.42188-0.0937-1.589-0.3495-3.1228-0.83807-4.5879-1.4551-0.20475-0.0858-0.40338-0.17679-0.60547-0.26758-1.3694-0.6176-2.6761-1.3468-3.9102-2.1797-0.25831-0.17373-0.50779-0.35259-0.75976-0.53516-1.117-0.81223-2.1689-1.7092-3.1484-2.6856-0.30551-0.30305-0.59743-0.61191-0.88867-0.92968-0.84868-0.93055-1.6336-1.9222-2.3516-2.9707-0.32025-0.46454-0.61933-0.9361-0.91211-1.4219-0.58994-0.98588-1.1234-2.0131-1.5938-3.0801-0.28858-0.6483-0.54554-1.3053-0.78711-1.9805-0.34601-0.97756-0.64199-1.9824-0.88477-3.0117-0.19911-0.83216-0.35687-1.6716-0.48437-2.5332-0.1431-0.9838-0.23912-1.9855-0.28516-3.0039-0.0223-0.47703-0.13281-0.92463-0.13281-1.4082 0-0.49014 0.11045-0.94255 0.13281-1.4258 0.0457-1.0124 0.13883-2.0097 0.2793-2.9883 0.13291-0.91827 0.30323-1.811 0.51562-2.6953 0.22593-0.9472 0.49608-1.8737 0.8086-2.7774 0.28341-0.81521 0.59503-1.6031 0.94531-2.3789 0.40611-0.90429 0.85589-1.7811 1.3477-2.627 0.39447-0.67536 0.80788-1.3242 1.2539-1.959 0.60142-0.86031 1.2476-1.683 1.9375-2.4629 0.44181-0.49691 0.89361-0.97194 1.3691-1.4336 0.83082-0.81112 1.7118-1.5664 2.6387-2.2617 0.41536-0.3096 0.8325-0.60558 1.2656-0.89062 1.1031-0.73093 2.2615-1.381 3.4707-1.9414 0.31727-0.14578 0.63118-0.28845 0.95508-0.42187 1.3957-0.58052 2.8524-1.0435 4.3594-1.3809 0.17523-0.0386 0.34686-0.0801 0.52343-0.11524 1.6971-0.34396 3.4561-0.52821 5.2617-0.5371 0.0121-2e-5 0.0231-4e-3 0.0352-4e-3zm41.201 1.3008h14.4v31.4c0 2.9 0.89971 9.6992 9.5996 9.6992 5.6999 0 9.9004-4.0992 9.9004-9.6992v-31.4h14.398v31c0 14.2-9.9989 24.1-24.299 24.1-14.6 0-24-9.3997-24-24.1zm-111.1 78.5 6.2988 2.5996-5.5996 4.5h-5.8008zm58.1 1.2988c1 0 1.8 0.4 2.5 1 0.7 0.7 1 1.5 1 2.5s-0.3 1.8-1 2.5-1.5 1-2.5 1-1.8-0.3-2.5-1-1-1.5-1-2.5 0.4-1.8 1-2.5c0.7-0.7 1.5-1 2.5-1zm-102.2 1.6016c4.5999 0 8.5016 1.7988 11.602 5.2988l-3.9004 4.4004c-2-2.5-4.5004-3.6992-7.4004-3.6992-2.4 0-4.3996 0.79883-6.0996 2.2988s-2.5 3.6008-2.5 6.3008c0 2.6 0.80039 4.6988 2.4004 6.2988 1.5 1.6 3.3992 2.4004 5.6992 2.4004 3.1 0 5.5996-1.1992 7.5996-3.6992l4 4.1992c-3.2 3.6-6.9988 5.4004-11.299 5.4004-4.2999 0-7.9012-1.3996-10.701-4.0996s-4.1992-6.2004-4.1992-10.4 1.3988-7.7 4.2988-10.5 6.4-4.1992 10.5-4.1992zm57.5 0.59961h6.1016v6.5h5.2988v4.6992h-5.2988v9.4004c0 0.8 0.19922 1.5 0.69922 2 0.4 0.5 0.9 0.69922 1.5 0.69922 1.1 0 2.1004-0.5 2.9004-1.5l2.2988 4.2012c-1.9 1.7-3.9 2.5996-6 2.5996s-3.8988-0.69961-5.2988-2.0996-2.2012-3.1996-2.2012-5.5996zm53.5 0h6.1016v20.6c0 0.8 0.19922 1.5 0.69922 2 0.4 0.5 0.9 0.69922 1.5 0.69922 1.1 0 2.1004-0.5 2.9004-1.5l2.2988 4.2012c-1.9 1.7-3.9 2.5996-6 2.5996s-3.8988-0.69961-5.2988-2.0996-2.2012-3.1996-2.2012-5.5996zm-82.6 6.1992v5.7012h-1.1992c-1.8 0-3.2 0.59844-4 1.8984-0.9 1.3-1.3008 3.0016-1.3008 5.1016v9.3984h-6.0996v-21.699h6.0996v2.9004c0.8-0.9 1.8004-1.6008 2.9004-2.3008 1.2-0.6 2.3996-1 3.5996-1zm14.201 0c3 0 5.3984 0.8 7.3984 2.5s3.1012 3.8 3.2012 6.5v0.80078l-14.5 6c0.9 1 2.2004 1.5996 3.9004 1.5996 1.2 0 2.2984-0.30039 3.3984-0.90039s2.0016-1.3988 2.6016-2.2988l3.5 3.7988c-2.8 2.9-5.9004 4.4004-9.4004 4.4004s-6.3008-1.0992-8.3008-3.1992c-2.1-2.1-3.0996-4.8016-3.0996-8.1016s1.1004-6 3.4004-8c2.3-2.1 4.9004-3.0996 7.9004-3.0996zm41.699 0c3 0 5.4004 0.8 7.4004 2.5s3.0992 3.8 3.1992 6.5v0.80078l-14.5 6c0.9 1 2.2004 1.5996 3.9004 1.5996 1.2 0 2.3004-0.30039 3.4004-0.90039s1.9996-1.3988 2.5996-2.2988l3.5 3.7988c-2.8 2.9-5.9004 4.4004-9.4004 4.4004s-6.2988-1.0992-8.2988-3.1992c-2.1-2.1-3.1016-4.8016-3.1016-8.1016s1.1004-6 3.4004-8 4.9004-3.0996 7.9004-3.0996zm14.9 0.4004h6.0996v21.699h-6.0996zm-56.4 4.8008c-1.5 0-2.8004 0.5-3.9004 1.5s-1.6992 2.3-1.6992 4v0.69922l9.5-3.8008c-0.4-1.6-1.6004-2.3984-3.9004-2.3984zm41.699 0c-1.5 0-2.7984 0.49844-3.8984 1.3984-1.1 1-1.7012 2.3-1.7012 4v0.70117l9.5-3.8008c-0.4-1.5-1.7004-2.2988-3.9004-2.2988z"/>
	<path class="st1" d="m418.7 276.1v-2.5c-5.1-2.5-10.2-3.9-14.1-3.9-3.7 0-6.4 1.2-6.4 4.1 0 5.3 11.8 5.5 20.3 10v-0.1c0.2-2.6 0.2-5.1 0.2-7.6z"/>
</g>
</g>
</svg>
