<?xml version="1.0" encoding="UTF-8"?>
<svg width="177.41" height="52.701" version="1.1" xmlns="http://www.w3.org/2000/svg">
 <g transform="translate(-488.44 -664.69)" fill="#8894aa">
  <g transform="matrix(1.25 0 0 -1.25 522.96 668.6)">
   <path d="m0 0h-16.689c-1.27 0-2.149-0.386-2.149-1.948v-12.594h13.478l2.039-5.455h-15.517v-12.986c0-1.952 1.173-2.928 3.318-2.928h16.69v-3.12h-22.056c-4.197 0-6.734 1.951-6.734 7.415v26.058c0 4.195 0.585 8.686 7.614 8.686h20.006z" fill="#8894aa"/>
  </g>
  <g transform="matrix(1.25 0 0 -1.25 664.38 668.6)">
   <path d="m0 0h-16.689c-1.27 0-2.149-0.386-2.149-1.948v-12.594h13.478l2.039-5.455h-15.517v-12.986c0-1.952 1.173-2.928 3.318-2.928h16.691v-3.12h-22.057c-4.198 0-6.734 1.951-6.734 6.735v26.058c0 4.875 0.585 9.366 7.614 9.366h20.006z" fill="#8894aa"/>
  </g>
  <g transform="matrix(1.25 0 0 -1.25 530.02 712.63)">
   <path d="m0 0c2.83-0.395 5.858-0.686 8.589-0.686 4.296 0 9.174 1.172 9.174 6.443 0 8.879-18.834 8.685-18.834 20.59 0 9.467 8.296 12.007 14.541 12.007 3.901 0 7.22-0.394 9.561-0.683v-2.929c-1.85 0.194-3.51 0.483-5.463 0.483-4.391 0-10.443 0.197-10.443-5.853 0-8.002 19.422-7.609 19.422-21.275 0-8.292-6.734-11.904-14.541-11.904-4.394 0-8.099 0.096-12.006 1.071z" fill="#8894aa"/>
  </g>
  <g transform="matrix(1.25 0 0 -1.25 570.04 665.45)">
   <path d="m0 0v-41.548h8.78v35.429z" fill="#8894aa"/>
  </g>
  <g transform="matrix(1.25 0 0 -1.25 604.8 713.49)">
   <path d="m0 0c-2.145 0-3.317 0.976-3.317 2.927v12.987h15.418l-2.039 5.455h-13.379v12.594c0 1.562 0.879 1.949 2.149 1.949h16.688v3.127h-20.006c-7.029 0-7.613-4.492-7.613-8.686v-6.902l6.45-4.394-6.45-4.197v-10.565c0-5.464 2.537-7.415 6.732-7.415h20.798v3.12z" fill="#8894aa"/>
  </g>
 </g>
</svg>
