<?xml version="1.0" encoding="UTF-8"?>
<svg width="153" height="72" version="1.1" viewBox="0 0 153 72" xmlns="http://www.w3.org/2000/svg">
 <g>
  <g fill="#58606e">
   <path d="M152.907 29.863c-1.318-14.558-12.586-24.615-27.414-24.629-.683.022-1.376.05-2.074.104L100.6 7.391l2.435 26.963 11.086-.99-1.043-13.876 13.611-.98c5.607.025 10.138 2.928 12.323 7.482l-4.606.416-.008.046 11.578-2.012c1.13 12.641-4.852 24.128-16.206 28.457.207 2.437.515 6.025.515 6.025 14.588-2.662 23.924-14.498 22.622-29.059z" fill="#58606e"/>
  </g>
  <g fill="#767e92">
   <path d="m146.67 25.249c1.302 14.561-7.652 26.377-22.238 29.038l-2.441-26.625z"/>
   <path d="M141.536 19.108c-6.146-9.122-11.172-10.43-20.954-5.065l5.987 4.494c.323.006 7.165.057 8.887 3.945z"/>
   <path d="M152.413 26.508C149.071 9.463 128.99.1 119.384.77l9.153 11.965c.322.003 16.41 8.7 18.131 12.585z"/>
  </g>
  <g fill="#8894aa">
   <path d="m121.99 27.661 12.303-1.18c0.747 7.315-3.764 13.156-11.103 14.4z"/>
   <path d="M146.668 25.322C145.35 10.764 134.211.783 119.386.768l1.197 13.274c7.454.036 13.043 5.108 13.706 12.44z"/>
   <path d="M119.573.77l.232 2.575.517 5.758.448 4.942-12.757 1.046.963 13.739-11.863 1.058-1.225-13.582-1.208-13.38 14.142-1.272 8.678-.78a43.057 43.057 0 0 1 2.073-.105z"/>
  </g>
 </g>
 <path d="M54.412 40.606l.36 4.458 6.413-.516.126 1.573-6.414.515.418 5.17-1.828.148-1.03-12.79 9.024-.728.13 1.59z" fill="#8894aa"/>
 <g fill="#8894aa">
  <path d="M70.177 47.63c-.348 1.15-1.341 1.838-2.657 1.944-1.334.108-2.187-.431-2.265-1.4-.066-.824.373-1.539 2.107-1.678l2.707-.218zm1.522-3.028c-.214-2.647-1.816-3.807-4.463-3.593-1.554.123-2.962.678-3.903 1.566l.837 1.256c.697-.702 1.834-1.197 2.987-1.289 1.735-.139 2.662.648 2.782 2.13l.028.345-2.777.224c-2.888.234-3.79 1.594-3.665 3.146.136 1.682 1.62 2.738 3.81 2.561 1.517-.122 2.554-.72 3.067-1.644l.104 1.278 1.664-.133z"/>
  <path d="M83.299 44.68c.166 2.064-1.132 3.528-2.996 3.68-1.846.148-3.362-1.09-3.528-3.154-.165-2.065 1.135-3.512 2.979-3.66 1.863-.152 3.38 1.07 3.545 3.133zm1.772-.143c-.238-2.96-2.463-4.769-5.293-4.539-1.373.11-2.535.72-3.254 1.826l-.432-5.338-1.754.143 1.093 13.556 1.68-.133-.124-1.535c.875 1.032 2.161 1.481 3.588 1.365 2.83-.228 4.734-2.385 4.496-5.345z"/>
  <path d="M86.81 35.624l1.753-.142 1.092 13.557-1.753.143z"/>
  <path d="M98.683 45.334c-.348 1.149-1.34 1.838-2.657 1.944-1.332.108-2.187-.432-2.265-1.401-.066-.823.371-1.538 2.111-1.677l2.703-.218zm1.522-3.028c-.214-2.648-1.814-3.808-4.465-3.594-1.552.124-2.96.68-3.9 1.567l.836 1.256c.697-.702 1.834-1.197 2.987-1.29 1.735-.14 2.662.649 2.782 2.13l.028.346-2.777.224c-2.888.234-3.789 1.594-3.665 3.144.136 1.684 1.62 2.74 3.811 2.563 1.517-.121 2.555-.721 3.07-1.644l.102 1.278 1.662-.133z"/>
  <path d="M111.806 42.382c.166 2.065-1.132 3.53-2.994 3.68-1.846.15-3.364-1.09-3.53-3.153-.165-2.065 1.135-3.512 2.98-3.66 1.862-.152 3.379 1.07 3.544 3.133zm1.772-.142c-.238-2.96-2.463-4.769-5.295-4.538-1.371.11-2.533.72-3.254 1.825l-.43-5.337-1.756.142 1.093 13.556 1.682-.133-.124-1.535c.875 1.032 2.16 1.481 3.586 1.366 2.832-.229 4.736-2.386 4.498-5.346z"/>
  <path d="M4.727 68.793l-.566-7.015 2.284-.186c2.173-.174 3.74 1.005 3.917 3.216.18 2.212-1.179 3.626-3.352 3.802zM1.341 71.97l6.048-.487c4.237-.342 6.946-3.042 6.63-6.97-.318-3.93-3.424-6.162-7.66-5.82L.31 59.18z"/>
  <path d="M26.487 67.132l.226 2.795-10.268.827-1.03-12.79 10.03-.808.225 2.797-6.448.52.174 2.155 5.679-.458.217 2.705-5.68.457.189 2.34z"/>
  <path d="M27.745 68.686l.973-2.764c1.192.659 2.842 1.04 4.322.92 1.499-.12 2.05-.586 2-1.21-.164-2.027-7.317.04-7.698-4.712-.184-2.283 1.528-4.297 5.327-4.604 1.664-.134 3.412.112 4.732.741l-.897 2.776c-1.278-.56-2.511-.79-3.625-.7-1.516.121-2.024.677-1.972 1.317.158 1.955 7.293-.093 7.673 4.624.179 2.228-1.531 4.278-5.332 4.584-2.101.17-4.231-.23-5.503-.973z"/>
  <path d="M39.39 62.469c-.314-3.891 2.441-6.89 6.498-7.217 2.36-.19 4.326.518 5.695 1.968l-2.136 2.27c-.88-.904-1.909-1.355-3.134-1.255-2.1.168-3.445 1.748-3.27 3.94.178 2.192 1.756 3.536 3.86 3.366 1.222-.097 2.167-.707 2.892-1.74l2.471 1.898c-1.119 1.655-2.949 2.666-5.305 2.855-4.057.327-7.258-2.191-7.57-6.085z"/>
  <path d="M57.645 62.25l1.314-4.226 1.974 3.961zm5.766 4.721l3.766-.303-6.696-12.335-3.562.288-4.616 13.245 3.69-.297.807-2.567 5.409-.436z"/>
  <path d="M73.038 56.191c1.498-.12 2.303.514 2.399 1.7.093 1.171-.6 1.926-2.098 2.046l-2.01.161-.301-3.745zm3.086 9.754l3.873-.312-3.082-3.796c1.528-.895 2.329-2.358 2.177-4.24-.236-2.924-2.575-4.555-6.064-4.276l-5.845.472 1.029 12.792 3.617-.292-.274-3.398 1.974-.16z"/>
  <path d="M83.483 55.368l-3.93.315-.23-2.868 11.457-.923.232 2.87-3.913.314.799 9.922-3.616.291z"/>
  <path d="M103.215 60.95l.226 2.795-10.27.83-1.03-12.793 10.031-.808.224 2.797-6.448.52.172 2.155 5.683-.458.217 2.705-5.68.457.187 2.34z"/>
  <path d="M104.47 62.504l.974-2.763c1.192.658 2.842 1.039 4.322.919 1.499-.12 2.048-.585 1.998-1.208-.164-2.026-7.317.039-7.7-4.713-.182-2.283 1.534-4.296 5.333-4.603 1.662-.135 3.412.11 4.73.74l-.9 2.777c-1.275-.561-2.508-.791-3.622-.701-1.516.12-2.024.679-1.972 1.317.156 1.955 7.293-.092 7.673 4.624.179 2.229-1.531 4.278-5.332 4.584-2.1.17-4.23-.23-5.503-.973z"/>
 </g>
</svg>
