<?xml version="1.0" encoding="UTF-8"?>
<svg width="23.948mm" height="19.529mm" version="1.1" viewBox="0 0 23.948 19.529" xmlns="http://www.w3.org/2000/svg">
 <g transform="translate(-8.039 -112.53)">
  <g transform="matrix(.37954 0 0 -.37954 30.481 132.06)">
   <path d="m-55.161 51.455c-2.193 0-3.969-1.776-3.969-3.969v-43.518c0-2.192 1.776-3.9676 3.969-3.9676h55.161c2.193 0 3.969 1.7756 3.969 3.9676v43.518c0 2.193-1.776 3.969-3.969 3.969zm0-1.224h55.16c1.517 0 2.7449-1.2276 2.7449-2.7435v-43.521c0-1.515-1.2279-2.7422-2.7449-2.7422h-55.16c-1.515 0-2.7449 1.2272-2.7449 2.7422v43.521c0 1.516 1.2299 2.7435 2.7449 2.7435z" fill="#8894aa"/>
  </g>
  <g transform="matrix(.37954 0 0 -.37954 25.457 118.06)">
   <path d="m0 0 10.748-8e-3c1.523 0 2.008 1.247 2.008 2.219 0 0.257 1e-3 5.065 1e-3 5.681 0 0.972-0.486 2.219-2.009 2.219l-18.786 7e-3c-2.495 0-3.95-1.871-3.95-3.88 0-1.031 1e-3 -16.366 1e-3 -17.431 0-2.564 2.217-4.505 4.989-4.78l7.552-0.348c1.665-0.069 2.218-0.97 2.218-2.079l-2e-3 -1.802c-0.044-1.186-0.871-1.906-2.353-1.906h-12.474c-1.732 0-2.009 0.83-2.288 1.593l-1.523 4.089c-0.277 0.831-1.109 1.594-2.079 1.663-1.316 0.207-1.663 0.346-1.663 0.969 0 0.833 0.415 0.902 1.524 1.04 1.941 0.208 3.465 1.732 3.465 3.811v15.177c0 2.01-1.455 3.881-3.95 3.881h-20.651c-1.525 0-2.217-0.763-2.217-2.219v-38.113c0-1.524 1.246-2.009 2.217-2.009 0.257 0 5.066-1e-3 5.683-1e-3 0.97 0 2.217 0.486 2.217 2.01v30.007h4.712c1.318 0 2.148-0.693 2.148-1.941v-4.365c0-1.18-0.552-2.288-1.87-2.288h-1.387c-1.592 0-2.285-0.624-2.285-2.01v-5.335c0-1.386 0.9-2.01 2.147-2.01 2.079 0 2.357-0.693 2.703-1.94l2.495-10.186c0.416-1.664 1.316-1.942 2.772-1.942l28.689 1e-3c2.495 0 3.95 1.872 3.95 3.879v17.363c0 2.286-1.871 4.572-4.296 4.711l-7.971 0.485c-1.662 0.069-2.564 0.762-2.564 1.802v2.115c0 0.971 0.625 1.871 2.079 1.871" fill="#8894aa"/>
  </g>
 </g>
</svg>
