<?xml version="1.0" encoding="UTF-8"?>
<svg width="1292.8pt" height="428.05pt" version="1.1" viewBox="0 0 1292.8 428.05" xmlns="http://www.w3.org/2000/svg" xmlns:xlink="http://www.w3.org/1999/xlink">
 <defs>
  <filter id="filter-remove-color" x="0" y="0" width="1" height="1">
   <feColorMatrix color-interpolation-filters="sRGB" values="0 0 0 0 1 0 0 0 0 1 0 0 0 0 1 0 0 0 1 0"/>
  </filter>
  <mask id="mask-0">
   <g filter="url(#filter-remove-color)">
    <rect x="-159.28" y="-72.805" width="1911.4" height="873.67" fill-opacity=".60852"/>
   </g>
  </mask>
  <clipPath id="clip-0">
   <path d="m0 0.62109h641.64v113.2h-641.64z"/>
  </clipPath>
  <clipPath id="clip-1">
   <rect width="642" height="114"/>
  </clipPath>
  <g id="source-914" clip-path="url(#clip-1)">
   <g clip-path="url(#clip-0)">
    <path transform="matrix(1 0 0 -1 635.28 79.214)" d="m0.0019438-6.4375e-4v72.227h-628.91v-100.47h45.52" fill="none" stroke="#374c54" stroke-dasharray="25.462, 25.462" stroke-dashoffset="6.366" stroke-width="12.731"/>
   </g>
  </g>
  <mask id="mask-1">
   <g filter="url(#filter-remove-color)">
    <rect x="-159.28" y="-72.805" width="1911.4" height="873.67" fill-opacity=".60852"/>
   </g>
  </mask>
  <clipPath id="clip-2">
   <path d="m0.60547 0.34766h404.06v76.016h-404.06z"/>
  </clipPath>
  <clipPath id="clip-3">
   <rect width="405" height="77"/>
  </clipPath>
  <g id="source-917" clip-path="url(#clip-3)">
   <g clip-path="url(#clip-2)">
    <path transform="matrix(1 0 0 -1 6.9722 .346)" d="m4.5625e-4 -0.0016562v-69.648h391.33v69.648" fill="none" stroke="#374c54" stroke-dasharray="25.462, 25.462" stroke-dashoffset="8.913" stroke-width="12.731"/>
   </g>
  </g>
  <mask id="mask-2">
   <g filter="url(#filter-remove-color)">
    <rect x="-159.28" y="-72.805" width="1911.4" height="873.67" fill-opacity=".60852"/>
   </g>
  </mask>
  <clipPath id="clip-4">
   <path d="m0.85938 0h446.1v86.305h-446.1z"/>
  </clipPath>
  <clipPath id="clip-5">
   <rect width="447" height="87"/>
  </clipPath>
  <g id="source-920" clip-path="url(#clip-5)">
   <g clip-path="url(#clip-4)">
    <path transform="matrix(1 0 0 -1 7.2266 83.786)" d="m-3.75e-5 0.0012438v77.418h433.37v-79.938" fill="none" stroke="#374c54" stroke-dasharray="25.462, 25.462" stroke-dashoffset="5.092" stroke-width="12.731"/>
   </g>
  </g>
  <mask id="mask-3">
   <g filter="url(#filter-remove-color)">
    <rect x="-159.28" y="-72.805" width="1911.4" height="873.67" fill-opacity=".60852"/>
   </g>
  </mask>
  <clipPath id="clip-6">
   <path d="m0.91016 0.6875h305.89v121.77h-305.89z"/>
  </clipPath>
  <clipPath id="clip-7">
   <rect width="307" height="123"/>
  </clipPath>
  <g id="source-923" clip-path="url(#clip-7)">
   <g clip-path="url(#clip-6)">
    <path transform="matrix(1 0 0 -1 7.2715 38.774)" d="m0.0019375 3.625e-4v-77.32h293.16v109.04h-56.535" fill="none" stroke="#374c54" stroke-dasharray="25.462, 25.462" stroke-dashoffset="11.458" stroke-width="12.731"/>
   </g>
  </g>
  <mask id="mask-4">
   <g filter="url(#filter-remove-color)">
    <rect x="-159.28" y="-72.805" width="1911.4" height="873.67" fill-opacity=".60852"/>
   </g>
  </mask>
  <clipPath id="clip-8">
   <path d="m0.98828 0.74609h101.04v87.309h-101.04z"/>
  </clipPath>
  <clipPath id="clip-9">
   <rect width="103" height="89"/>
  </clipPath>
  <g id="source-926" clip-path="url(#clip-9)">
   <g clip-path="url(#clip-8)">
    <path transform="matrix(1,0,0,-1,7.3555,1.098)" d="m-3.125e-5 3.4375e-4v-80.594h87.504s1.8164 47.855 0 80.594" fill="none" stroke="#374c54" stroke-dasharray="25.462, 25.462" stroke-dashoffset="14.004" stroke-width="12.731"/>
   </g>
  </g>
 </defs>
 <g stroke="#8894aa">
  <path d="m243.97 108.01c-72.188 20.863-111.61 0.77343-166.48 0" fill="none" stroke-width="26.735"/>
  <path d="m158.91 307.65c-4.8477-63.496-17.805-122.49 0-190.12" fill="none" stroke-width="26.735"/>
  <path d="m159.28 136.22c-10.156 0-18.387-8.2305-18.387-18.387s8.2305-18.391 18.387-18.391 18.391 8.2344 18.391 18.391-8.2344 18.387-18.391 18.387" fill="#ccd0d9"/>
  <path d="m159.28 136.22c-10.156 0-18.387-8.2305-18.387-18.387s8.2305-18.391 18.387-18.391 18.391 8.2344 18.391 18.391-8.2344 18.387-18.391 18.387zm0 0" fill="none" stroke-linecap="round" stroke-linejoin="round" stroke-width="10.578"/>
 </g>
 <g stroke="#8894aa">
  <path d="m158.19 329.37c-10.156 0-18.391-8.2344-18.391-18.391s8.2344-18.387 18.391-18.387 18.387 8.2305 18.387 18.387-8.2305 18.391-18.387 18.391" fill="#fff"/>
  <path d="m158.19 329.37c-10.156 0-18.391-8.2344-18.391-18.391s8.2344-18.387 18.391-18.387 18.387 8.2305 18.387 18.387-8.2305 18.391-18.387 18.391zm0 0" fill="#ccd0d9" stroke-linecap="round" stroke-linejoin="round" stroke-width="10.578"/>
  <path d="m237.85 129.31c-10.156 0-18.387-8.2305-18.387-18.387s8.2305-18.391 18.387-18.391 18.391 8.2344 18.391 18.391-8.2344 18.387-18.391 18.387" fill="#fff"/>
  <path d="m237.85 129.31c-10.156 0-18.387-8.2305-18.387-18.387s8.2305-18.391 18.387-18.391 18.391 8.2344 18.391 18.391-8.2344 18.387-18.391 18.387zm0 0" fill="#ccd0d9" stroke-linecap="round" stroke-linejoin="round" stroke-width="10.578"/>
  <path d="m85.073 126.76c-10.156 0-18.391-8.2305-18.391-18.387 0-10.156 8.2344-18.391 18.391-18.391s18.387 8.2344 18.387 18.391c0 10.156-8.2305 18.387-18.387 18.387" fill="#ccd0d9"/>
 </g>
 <g fill="none" stroke="#8894aa">
  <path d="m85.073 126.76c-10.156 0-18.391-8.2305-18.391-18.387 0-10.156 8.2344-18.391 18.391-18.391s18.387 8.2344 18.387 18.391c0 10.156-8.2305 18.387-18.387 18.387zm0 0" stroke-linecap="round" stroke-linejoin="round" stroke-width="10.578"/>
  <g stroke-width="26.735">
   <path d="m304.78 110.62c22.543 73.797 3.8125 140.72 0 210.12"/>
   <path d="m444.82 110.62c-0.73829 70.148-29.867 144.35 0 210.12"/>
   <path d="m448.03 219.32c-41.977 2.4297-70.898 27.707-130.1 0"/>
  </g>
 </g>
 <g stroke="#8894aa">
  <path d="m315.51 238.62c-10.156 0-18.391-8.2344-18.391-18.391s8.2344-18.391 18.391-18.391 18.391 8.2344 18.391 18.391-8.2344 18.391-18.391 18.391" fill="#fff"/>
  <path d="m315.51 238.62c-10.156 0-18.391-8.2344-18.391-18.391s8.2344-18.391 18.391-18.391c10.156 0 18.391 8.2344 18.391 18.391s-8.2344 18.391-18.391 18.391zm0 0" fill="#ccd0d9" stroke-linecap="round" stroke-linejoin="round" stroke-width="10.578"/>
  <path d="m432.81 237.71c-10.156 0-18.391-8.2344-18.391-18.391s8.2344-18.391 18.391-18.391 18.391 8.2344 18.391 18.391-8.2344 18.391-18.391 18.391" fill="#fff"/>
  <path d="m432.81 237.71c-10.156 0-18.391-8.2344-18.391-18.391s8.2344-18.391 18.391-18.391 18.391 8.2344 18.391 18.391-8.2344 18.391-18.391 18.391zm0 0" fill="#ccd0d9" stroke-linecap="round" stroke-linejoin="round" stroke-width="10.578"/>
  <path d="m304.05 128.58c-10.156 0-18.391-8.2344-18.391-18.391s8.2344-18.387 18.391-18.387 18.391 8.2305 18.391 18.387-8.2344 18.391-18.391 18.391" fill="#ccd0d9"/>
 </g>
 <path d="m304.05 128.58c-10.156 0-18.391-8.2344-18.391-18.391s8.2344-18.387 18.391-18.387 18.391 8.2305 18.391 18.387-8.2344 18.391-18.391 18.391zm0 0" fill="none" stroke="#8894aa" stroke-linecap="round" stroke-linejoin="round" stroke-width="10.577"/>
 <g stroke="#8894aa">
  <path d="m444.46 130.77c-10.156 0-18.391-8.2344-18.391-18.391s8.2344-18.391 18.391-18.391 18.391 8.2344 18.391 18.391-8.2344 18.391-18.391 18.391" fill="#fff"/>
  <path d="m444.46 130.77c-10.156 0-18.391-8.2344-18.391-18.391s8.2344-18.391 18.391-18.391 18.391 8.2344 18.391 18.391-8.2344 18.391-18.391 18.391zm0 0" fill="#ccd0d9" stroke-linecap="round" stroke-linejoin="round" stroke-width="10.578"/>
  <path d="m444.09 334.83c-10.156 0-18.391-8.2344-18.391-18.391s8.2344-18.387 18.391-18.387 18.391 8.2305 18.391 18.387-8.2344 18.391-18.391 18.391" fill="#fff"/>
  <path d="m444.09 334.83c-10.156 0-18.391-8.2344-18.391-18.391s8.2344-18.387 18.391-18.387 18.391 8.2305 18.391 18.387-8.2344 18.391-18.391 18.391zm0 0" fill="#ccd0d9" stroke-linecap="round" stroke-linejoin="round" stroke-width="10.578"/>
  <path d="m304.78 334.1c-10.156 0-18.391-8.2344-18.391-18.395 0-10.152 8.2344-18.387 18.391-18.387s18.391 8.2344 18.391 18.387c0 10.16-8.2344 18.395-18.391 18.395" fill="#ccd0d9"/>
 </g>
 <path d="m304.78 334.1c-10.156 0-18.391-8.2344-18.391-18.395 0-10.152 8.2344-18.387 18.391-18.387s18.391 8.2344 18.391 18.387c0 10.16-8.2344 18.395-18.391 18.395zm0 0" fill="none" stroke="#8894aa" stroke-linecap="round" stroke-linejoin="round" stroke-width="10.578"/>
 <path d="m548.46 123.71c-14 63.145-10.121 122.71 0 181.03" fill="none" stroke="#8894aa" stroke-width="26.735"/>
 <g stroke="#8894aa">
  <path d="m548.46 130.77c-10.156 0-18.391-8.2344-18.391-18.391s8.2344-18.391 18.391-18.391c10.152 0 18.387 8.2344 18.387 18.391s-8.2344 18.391-18.387 18.391" fill="#fff"/>
  <path d="m548.46 130.77c-10.156 0-18.391-8.2344-18.391-18.391s8.2344-18.391 18.391-18.391c10.152 0 18.387 8.2344 18.387 18.391s-8.2344 18.391-18.387 18.391zm0 0" fill="#ccd0d9" stroke-linecap="round" stroke-linejoin="round" stroke-width="10.578"/>
  <path d="m548.46 335c-10.156 0-18.391-8.2344-18.391-18.391 0-10.152 8.2344-18.387 18.391-18.387 10.152 0 18.387 8.2344 18.387 18.387 0 10.156-8.2344 18.391-18.387 18.391" fill="#fff"/>
  <path d="m548.46 335c-10.156 0-18.391-8.2344-18.391-18.391 0-10.152 8.2344-18.387 18.391-18.387 10.152 0 18.387 8.2344 18.387 18.387 0 10.156-8.2344 18.391-18.387 18.391zm0 0" fill="#ccd0d9" stroke-linecap="round" stroke-linejoin="round" stroke-width="10.578"/>
 </g>
 <g fill="none" stroke="#8894aa" stroke-width="23.431">
  <path d="m637.15 119c18.074 63.922 8.0312 130.57 0 190.13"/>
  <path d="m768.33 120.29c-19.305 34.426-0.0273 126.73 0 190.14"/>
  <path d="m647.44 122.86c13.73-5.2617 41.18 108.6 119.6 192.71"/>
 </g>
 <g stroke="#8894aa">
  <path d="m638.44 134.72c-10.156 0-18.391-8.2305-18.391-18.387s8.2344-18.391 18.391-18.391c10.152 0 18.387 8.2344 18.387 18.391s-8.2344 18.387-18.387 18.387" fill="#fff"/>
  <path d="m638.44 134.72c-10.156 0-18.391-8.2305-18.391-18.387s8.2344-18.391 18.391-18.391c10.152 0 18.387 8.2344 18.387 18.391s-8.2344 18.387-18.387 18.387zm0 0" fill="#ccd0d9" stroke-linecap="round" stroke-linejoin="round" stroke-width="10.578"/>
  <path d="m767.04 132.15c-10.152 0-18.387-8.2344-18.387-18.387 0-10.156 8.2344-18.391 18.387-18.391 10.156 0 18.391 8.2344 18.391 18.391 0 10.152-8.2344 18.387-18.391 18.387" fill="#fff"/>
  <path d="m767.04 132.15c-10.152 0-18.387-8.2344-18.387-18.387 0-10.156 8.2344-18.391 18.387-18.391 10.156 0 18.391 8.2344 18.391 18.391 0 10.152-8.2344 18.387-18.391 18.387zm0 0" fill="#ccd0d9" stroke-linecap="round" stroke-linejoin="round" stroke-width="10.578"/>
  <path d="m765.76 326.34c-10.156 0-18.391-8.2344-18.391-18.395 0-10.152 8.2344-18.387 18.391-18.387s18.391 8.2344 18.391 18.387c0 10.16-8.2344 18.395-18.391 18.395" fill="#fff"/>
  <path d="m765.76 326.34c-10.156 0-18.391-8.2344-18.391-18.395 0-10.152 8.2344-18.387 18.391-18.387s18.391 8.2344 18.391 18.387c0 10.16-8.2344 18.395-18.391 18.395zm0 0" fill="#ccd0d9" stroke-linecap="round" stroke-linejoin="round" stroke-width="10.578"/>
  <path d="m637.15 327.63c-10.156 0-18.391-8.2344-18.391-18.391s8.2344-18.391 18.391-18.391c10.152 0 18.387 8.2344 18.387 18.391s-8.2344 18.391-18.387 18.391" fill="#fff"/>
  <path d="m637.15 327.63c-10.156 0-18.391-8.2344-18.391-18.391s8.2344-18.391 18.391-18.391c10.152 0 18.387 8.2344 18.387 18.391s-8.2344 18.391-18.387 18.391zm0 0" fill="#ccd0d9" stroke-linecap="round" stroke-linejoin="round" stroke-width="10.578"/>
 </g>
 <g fill="none" stroke="#8894aa" stroke-width="24.189">
  <path d="m854.3 123.7c4.1914 44.387-19.633 75.418 0 192.12"/>
  <path d="m842.39 121.55c95.887-21.133 113.55-6.1641 150.29 0"/>
  <path d="m841.48 308.88c78.316 18.109 131.33 20.652 146.65 0"/>
  <path d="m991.2 232.82c17.555 36.504 5.2305 61.059 0 88.453"/>
  <path d="m916.05 230.67c37.129-15.84 62.242-4.6406 90.27 0"/>
 </g>
 <g stroke="#8894aa">
  <path d="m854.06 139.94c-10.156 0-18.391-8.2344-18.391-18.391s8.2344-18.387 18.391-18.387c10.156 0 18.391 8.2305 18.391 18.387s-8.2343 18.391-18.391 18.391" fill="#fff"/>
  <path d="m854.06 139.94c-10.156 0-18.391-8.2344-18.391-18.391s8.2344-18.387 18.391-18.387 18.391 8.2305 18.391 18.387-8.2344 18.391-18.391 18.391zm0 0" fill="#ccd0d9" stroke-linecap="round" stroke-linejoin="round" stroke-width="10.578"/>
  <path d="m852.97 329.08c-10.156 0-18.391-8.2344-18.391-18.391s8.2344-18.387 18.391-18.387c10.156 0 18.387 8.2305 18.387 18.387s-8.2305 18.391-18.387 18.391" fill="#fff"/>
  <path d="m852.97 329.08c-10.156 0-18.391-8.2344-18.391-18.391s8.2344-18.387 18.391-18.387 18.387 8.2305 18.387 18.387-8.2305 18.391-18.387 18.391zm0 0" fill="#ccd0d9" stroke-linecap="round" stroke-linejoin="round" stroke-width="10.578"/>
  <path d="m989.38 329.08c-10.156 0-18.391-8.2344-18.391-18.391s8.2344-18.387 18.391-18.387c10.152 0 18.387 8.2305 18.387 18.387s-8.2343 18.391-18.387 18.391" fill="#fff"/>
  <path d="m989.38 329.08c-10.156 0-18.391-8.2344-18.391-18.391s8.2344-18.387 18.391-18.387c10.152 0 18.387 8.2305 18.387 18.387s-8.2343 18.391-18.387 18.391zm0 0" fill="#ccd0d9" stroke-linecap="round" stroke-linejoin="round" stroke-width="10.578"/>
  <path d="m991.2 248.15c-10.156 0-18.391-8.2344-18.391-18.391s8.2344-18.391 18.391-18.391c10.156 0 18.391 8.2344 18.391 18.391s-8.2343 18.391-18.391 18.391" fill="#fff"/>
  <path d="m991.2 248.15c-10.156 0-18.391-8.2344-18.391-18.391s8.2344-18.391 18.391-18.391c10.156 0 18.391 8.2344 18.391 18.391s-8.2344 18.391-18.391 18.391zm0 0" fill="#ccd0d9" stroke-linecap="round" stroke-linejoin="round" stroke-width="10.578"/>
  <path d="m918.45 247.24c-10.156 0-18.391-8.2344-18.391-18.391 0-10.152 8.2344-18.387 18.391-18.387 10.156 0 18.391 8.2344 18.391 18.387 0 10.156-8.2343 18.391-18.391 18.391" fill="#fff"/>
  <path d="m918.45 247.24c-10.156 0-18.391-8.2344-18.391-18.391 0-10.152 8.2344-18.387 18.391-18.387s18.391 8.2344 18.391 18.387c0 10.156-8.2344 18.391-18.391 18.391zm0 0" fill="#ccd0d9" stroke-linecap="round" stroke-linejoin="round" stroke-width="10.578"/>
  <path d="m989.38 139.94c-10.156 0-18.391-8.2344-18.391-18.391s8.2344-18.387 18.391-18.387c10.152 0 18.387 8.2305 18.387 18.387s-8.2343 18.391-18.387 18.391" fill="#fff"/>
  <path d="m989.38 139.94c-10.156 0-18.391-8.2344-18.391-18.391s8.2344-18.387 18.391-18.387c10.152 0 18.387 8.2305 18.387 18.387s-8.2343 18.391-18.387 18.391zm0 0" fill="#ccd0d9" stroke-linecap="round" stroke-linejoin="round" stroke-width="10.578"/>
 </g>
 <path d="m1057.8 119.72c47.434-5.4219 96.672-13.25 130.11 0-19.703 100.48-105.51 121.16-112.34 191.33 41.223 26.516 82.449 4.1094 123.67 0" fill="none" stroke="#8894aa" stroke-width="26.735"/>
 <g stroke="#8894aa">
  <path d="m1066.5 136.66c-10.156 0-18.391-8.2344-18.391-18.391s8.2343-18.391 18.391-18.391c10.156 0 18.391 8.2344 18.391 18.391s-8.2344 18.391-18.391 18.391" fill="#fff"/>
  <path d="m1066.5 136.66c-10.156 0-18.391-8.2344-18.391-18.391s8.2344-18.391 18.391-18.391c10.156 0 18.391 8.2344 18.391 18.391s-8.2343 18.391-18.391 18.391zm0 0" fill="#ccd0d9" stroke-linecap="round" stroke-linejoin="round" stroke-width="10.578"/>
  <path d="m1196.7 139.21c-10.156 0-18.391-8.2305-18.391-18.387s8.2344-18.391 18.391-18.391c10.152 0 18.387 8.2344 18.387 18.391s-8.2344 18.387-18.387 18.387" fill="#fff"/>
  <path d="m1196.7 139.21c-10.156 0-18.391-8.2305-18.391-18.387s8.2344-18.391 18.391-18.391c10.152 0 18.387 8.2344 18.387 18.391s-8.2344 18.387-18.387 18.387zm0 0" fill="#ccd0d9" stroke-linecap="round" stroke-linejoin="round" stroke-width="10.578"/>
  <path d="m1064.7 331.27c-10.156 0-18.391-8.2344-18.391-18.391s8.2343-18.391 18.391-18.391c10.156 0 18.391 8.2344 18.391 18.391s-8.2344 18.391-18.391 18.391" fill="#ccd0d9"/>
 </g>
 <g stroke="#8894aa">
  <path d="m1064.7 331.27c-10.156 0-18.391-8.2344-18.391-18.391s8.2343-18.391 18.391-18.391c10.156 0 18.391 8.2344 18.391 18.391s-8.2344 18.391-18.391 18.391zm0 0" fill="none" stroke-linecap="round" stroke-linejoin="round" stroke-width="10.578"/>
  <path d="m1195.6 329.81c-10.156 0-18.391-8.2305-18.391-18.391 0-10.152 8.2344-18.387 18.391-18.387 10.156 0 18.391 8.2344 18.391 18.387 0 10.16-8.2343 18.391-18.391 18.391" fill="#fff"/>
  <path d="m1195.6 329.81c-10.156 0-18.391-8.2305-18.391-18.391 0-10.152 8.2344-18.387 18.391-18.387 10.156 0 18.391 8.2344 18.391 18.387 0 10.16-8.2343 18.391-18.391 18.391zm0 0" fill="#ccd0d9" stroke-linecap="round" stroke-linejoin="round" stroke-width="10.578"/>
  <g transform="translate(-150 -150)" mask="url(#mask-0)">
   <use transform="translate(150,152)" stroke="#8894aa" xlink:href="#source-914"/>
  </g>
  <g transform="translate(-150 -150)" mask="url(#mask-1)">
   <use transform="translate(300,496)" stroke="#8894aa" xlink:href="#source-917"/>
  </g>
  <g transform="translate(-150 -150)" mask="url(#mask-2)">
   <use transform="translate(909,150)" stroke="#8894aa" xlink:href="#source-920"/>
  </g>
  <g transform="translate(-150 -150)" mask="url(#mask-3)">
   <use transform="translate(1136,455)" stroke="#8894aa" xlink:href="#source-923"/>
  </g>
  <g transform="translate(-150 -150)" mask="url(#mask-4)">
   <use transform="translate(907,490)" stroke="#8894aa" xlink:href="#source-926"/>
  </g>
 </g>
</svg>
